<?xml version="1.0" encoding="UTF-8"?>
<svg xmlns="http://www.w3.org/2000/svg" xmlns:xlink="http://www.w3.org/1999/xlink" width="45px" height="px" viewBox="0 0 45 45" version="1.1">
<g id="surface1">
<path style=" stroke:none;fill-rule:nonzero;fill:rgb(100%,100%,100%);fill-opacity:1;" d="M 22.375 8.4375 C 9.449219 8.4375 8.4375 9.449219 8.4375 22.375 L 8.4375 22.625 C 8.4375 35.550781 9.449219 36.5625 22.375 36.5625 L 22.625 36.5625 C 35.550781 36.5625 36.5625 35.550781 36.5625 22.625 L 36.5625 22.5 C 36.5625 9.457031 35.542969 8.4375 22.5 8.4375 Z M 19.6875 11.25 L 25.3125 11.25 C 33.136719 11.25 33.75 11.863281 33.75 19.6875 L 33.75 25.3125 C 33.75 33.136719 33.136719 33.75 25.3125 33.75 L 19.6875 33.75 C 11.863281 33.75 11.25 33.136719 11.25 25.3125 L 11.25 19.6875 C 11.25 11.863281 11.863281 11.25 19.6875 11.25 Z M 29.527344 14.0625 C 28.75 14.066406 28.121094 14.695312 28.125 15.472656 C 28.128906 16.25 28.757812 16.878906 29.535156 16.875 C 30.3125 16.871094 30.941406 16.242188 30.9375 15.464844 C 30.933594 14.6875 30.304688 14.058594 29.527344 14.0625 Z M 22.484375 15.46875 C 18.601562 15.476562 15.460938 18.632812 15.46875 22.515625 C 15.476562 26.398438 18.632812 29.539062 22.515625 29.53125 C 26.398438 29.523438 29.539062 26.367188 29.53125 22.484375 C 29.523438 18.601562 26.367188 15.460938 22.484375 15.46875 Z M 22.492188 18.28125 C 24.820312 18.277344 26.714844 20.160156 26.71875 22.492188 C 26.722656 24.820312 24.839844 26.714844 22.507812 26.71875 C 20.179688 26.722656 18.285156 24.839844 18.28125 22.507812 C 18.277344 20.179688 20.160156 18.285156 22.492188 18.28125 Z M 22.492188 18.28125 "/>
</g>
</svg>
