<?xml version="1.0" encoding="UTF-8"?>
<svg xmlns="http://www.w3.org/2000/svg" xmlns:xlink="http://www.w3.org/1999/xlink" width="45px" height="px" viewBox="0 0 45 45" version="1.1">
<g id="surface1">
<path style=" stroke:none;fill-rule:nonzero;fill:rgb(100%,100%,100%);fill-opacity:1;" d="M 32.34375 33.140625 C 31.78125 33.65625 31.125 33.984375 30.375 34.125 C 30.234375 34.171875 30.046875 34.171875 29.90625 34.171875 C 29.859375 34.171875 29.765625 34.171875 29.625 34.171875 L 29.390625 34.171875 C 24.984375 34.3125 20.71875 32.71875 17.390625 29.578125 C 13.6875 26.109375 11.484375 21.09375 11.296875 15.84375 C 11.296875 15.703125 11.296875 15.5625 11.296875 15.46875 C 11.296875 15.421875 11.296875 15.375 11.296875 15.328125 C 11.296875 15.1875 11.296875 15.046875 11.296875 14.859375 C 11.296875 14.859375 11.296875 14.8125 11.296875 14.8125 C 11.4375 12.5625 13.125 10.828125 15.1875 10.78125 C 15.46875 10.78125 15.75 10.78125 15.984375 10.828125 C 16.359375 10.921875 16.734375 11.0625 17.109375 11.25 L 18.28125 18.09375 C 17.671875 18.84375 16.828125 19.359375 15.9375 19.5 C 15.9375 19.5 15.9375 19.5 15.890625 19.5 C 15.890625 19.5 15.890625 19.5 15.84375 19.5 C 15.84375 19.5 15.796875 19.5 15.796875 19.546875 C 15.75 19.546875 15.75 19.59375 15.703125 19.59375 C 15.65625 19.59375 15.65625 19.640625 15.65625 19.640625 C 15.65625 19.640625 15.609375 19.6875 15.609375 19.6875 C 15.609375 19.734375 15.5625 19.734375 15.5625 19.78125 C 15.5625 19.828125 15.5625 19.828125 15.515625 19.875 C 15.515625 19.921875 15.515625 19.921875 15.515625 19.96875 C 15.515625 19.96875 15.515625 20.015625 15.515625 20.015625 C 15.515625 20.015625 15.515625 20.015625 15.515625 20.0625 C 15.515625 20.0625 15.515625 20.0625 15.515625 20.109375 C 17.0625 24.84375 20.625 28.453125 25.125 29.765625 C 25.125 29.765625 25.171875 29.765625 25.171875 29.765625 C 25.171875 29.765625 25.171875 29.765625 25.21875 29.765625 C 25.21875 29.765625 25.265625 29.765625 25.265625 29.765625 C 25.3125 29.765625 25.359375 29.765625 25.40625 29.71875 C 25.40625 29.71875 25.453125 29.71875 25.453125 29.671875 C 25.5 29.671875 25.5 29.625 25.546875 29.625 C 25.546875 29.625 25.59375 29.578125 25.59375 29.578125 C 25.59375 29.53125 25.640625 29.53125 25.640625 29.484375 C 25.640625 29.484375 25.640625 29.4375 25.6875 29.4375 C 25.6875 29.4375 25.6875 29.390625 25.6875 29.390625 C 25.6875 29.390625 25.6875 29.34375 25.6875 29.34375 C 25.6875 29.34375 25.6875 29.296875 25.6875 29.296875 C 25.78125 28.3125 26.203125 27.375 26.859375 26.625 L 33.1875 27.515625 C 33.375 27.84375 33.515625 28.21875 33.609375 28.59375 C 33.609375 28.59375 33.609375 28.640625 33.609375 28.640625 C 33.65625 28.828125 33.703125 29.0625 33.703125 29.25 C 33.703125 29.34375 33.703125 29.4375 33.703125 29.53125 C 33.796875 31.03125 33.234375 32.296875 32.34375 33.140625 Z M 32.34375 33.140625 "/>
</g>
</svg>
